<?xml version="1.0" encoding="iso-8859-1"?>
<!-- Generator: Adobe Illustrator 19.0.0, SVG Export Plug-In . SVG Version: 6.00 Build 0)  -->
<svg xmlns="http://www.w3.org/2000/svg" xmlns:xlink="http://www.w3.org/1999/xlink" version="1.1" id="Layer_1" x="0px" y="0px" viewBox="0 0 512.005 512.005" style="enable-background:new 0 0 512.005 512.005;" xml:space="preserve" width="512px" height="512px">
<g>
	<g>
		<g>
			<path d="M295.552,173.776c-4.16-4.16-10.923-4.16-15.083,0L179.136,275.109c-4.16,4.16-4.16,10.923,0,15.083     c2.091,2.091,4.821,3.115,7.552,3.115c2.731,0,5.461-1.045,7.552-3.115l101.333-101.333     C299.712,184.699,299.712,177.957,295.552,173.776z" fill="#FFFFFF"/>
			<path d="M280.448,259.109l-58.667,58.667c-4.16,4.16-4.16,10.923,0,15.083c2.091,2.091,4.821,3.115,7.552,3.115     c2.731,0,5.461-1.045,7.552-3.115l58.667-58.667c4.16-4.16,4.16-10.923,0-15.083     C291.392,254.949,284.629,254.949,280.448,259.109z" fill="#FFFFFF"/>
			<path d="M216.448,188.88c2.091,2.069,4.821,3.115,7.552,3.115s5.461-1.045,7.552-3.115L380.885,39.547     c4.16-4.16,4.16-10.923,0-15.083c-4.16-4.16-10.923-4.16-15.083,0L216.469,173.797     C212.288,177.957,212.288,184.699,216.448,188.88z" fill="#FFFFFF"/>
			<path d="M387.115,82.213c2.091,2.069,4.821,3.115,7.552,3.115s5.461-1.045,7.552-3.115l64-64c4.16-4.16,4.16-10.923,0-15.083     c-4.16-4.16-10.923-4.16-15.083,0l-64,64C382.955,71.291,382.955,78.032,387.115,82.213z" fill="#FFFFFF"/>
			<path d="M344.448,109.776l-21.333,21.333c-4.16,4.16-4.16,10.923,0,15.083c2.091,2.091,4.821,3.136,7.552,3.136     c2.731,0,5.461-1.045,7.552-3.115l21.333-21.333c4.16-4.16,4.16-10.923,0-15.083     C355.392,105.637,348.629,105.616,344.448,109.776z" fill="#FFFFFF"/>
			<path d="M387.221,280.357L203.413,459.429c-20.139,20.139-46.933,31.232-75.413,31.232c-58.816,0-106.667-47.851-106.667-106.667     c0-28.501,11.115-55.296,31.36-75.52l178.965-183.701c4.096-4.224,4.011-10.987-0.213-15.083     c-4.181-4.096-10.944-4.032-15.083,0.192L37.504,293.477C13.312,317.648,0,349.776,0,383.995c0,70.592,57.408,128,128,128     c34.197,0,66.325-13.312,90.389-37.397l183.701-178.965c4.224-4.096,4.309-10.859,0.213-15.083     C398.165,276.325,391.424,276.261,387.221,280.357z" fill="#FFFFFF"/>
			<path d="M472.448,131.109l-21.333,21.333c-4.16,4.16-4.16,10.923,0,15.083c2.091,2.091,4.821,3.136,7.552,3.136     s5.461-1.045,7.552-3.115l21.333-21.333c4.16-4.16,4.16-10.923,0-15.083C483.392,126.971,476.629,126.949,472.448,131.109z" fill="#FFFFFF"/>
			<path d="M508.885,45.776c-4.16-4.16-10.923-4.16-15.083,0L323.136,216.443c-4.16,4.16-4.16,10.923,0,15.083     c2.069,2.091,4.8,3.136,7.531,3.136c2.731,0,5.461-1.045,7.552-3.115L508.885,60.88     C513.045,56.699,513.045,49.957,508.885,45.776z" fill="#FFFFFF"/>
			<path d="M42.667,383.995c0,47.061,38.272,85.333,85.333,85.333s85.333-38.272,85.333-85.333S175.061,298.661,128,298.661     S42.667,336.933,42.667,383.995z M128,341.328c5.888,0,10.667,4.779,10.667,10.667c0,5.888-4.779,10.667-10.667,10.667     c-11.776,0-21.333,9.579-21.333,21.333c0,5.888-4.779,10.667-10.667,10.667s-10.667-4.779-10.667-10.667     C85.333,360.464,104.469,341.328,128,341.328z" fill="#FFFFFF"/>
			<path d="M138.219,277.776c2.731,0,5.461-1.045,7.552-3.115l43.115-43.115c4.16-4.16,4.16-10.923,0-15.083     c-4.16-4.16-10.923-4.16-15.083,0l-43.115,43.115c-4.16,4.16-4.16,10.923,0,15.083     C132.757,276.731,135.488,277.776,138.219,277.776z" fill="#FFFFFF"/>
			<path d="M408.448,195.109L237.227,366.352c-4.16,4.16-4.16,10.923,0,15.083c2.091,2.091,4.821,3.115,7.552,3.115     c2.731,0,5.461-1.045,7.552-3.115l171.221-171.243c4.16-4.16,4.16-10.923,0-15.083     C419.392,190.949,412.629,190.949,408.448,195.109z" fill="#FFFFFF"/>
		</g>
	</g>
</g>
<g>
</g>
<g>
</g>
<g>
</g>
<g>
</g>
<g>
</g>
<g>
</g>
<g>
</g>
<g>
</g>
<g>
</g>
<g>
</g>
<g>
</g>
<g>
</g>
<g>
</g>
<g>
</g>
<g>
</g>
</svg>
